<?xml version="1.0" encoding="UTF-8"?>
<svg xmlns="http://www.w3.org/2000/svg" width="30" height="30" viewBox="0 0 30 30" fill="none">
  <g clip-path="url(#clip0_1722_119)">
    <circle cx="14.999" cy="15" r="15" fill="#A71680"></circle>
    <path fill-rule="evenodd" clip-rule="evenodd" d="M26.25 9.5002C26.25 8.92355 26.0497 8.75 25.5043 8.75H5.36952C4.99666 8.75 4.8464 8.95155 4.79631 9.29866C4.79631 9.29866 3.75006 15.4514 3.75006 16.5487V18.5978C3.75006 18.9729 3.92258 19.1744 4.29545 19.1744H5.76131C5.80809 19.1744 5.84851 19.1419 5.85975 19.0964C6.2641 17.4618 7.74061 16.25 9.50017 16.25C11.2597 16.25 12.7362 17.4618 13.1406 19.0964C13.1518 19.1419 13.1922 19.1744 13.239 19.1744H17.0058C17.0526 19.1744 17.093 19.1419 17.1042 19.0964C17.5086 17.4618 18.9851 16.25 20.7446 16.25C22.5042 16.25 23.9807 17.4618 24.3851 19.0964C24.3963 19.1419 24.4367 19.1744 24.4835 19.1744H25.4987C26.0441 19.1744 26.2444 18.9729 26.2444 18.4242V9.5002H26.25ZM5.44142 15C5.38141 15 5.33492 14.9475 5.34215 14.8879L5.89265 10.3527C5.94273 10 6.11525 10 6.26551 10H8.20236C8.25759 10 8.30236 10.0448 8.30236 10.1V14.9C8.30236 14.9552 8.25759 15 8.20236 15H5.44142ZM9.69904 13.75C9.64381 13.75 9.59904 13.7052 9.59904 13.65V10.1C9.59904 10.0448 9.64381 10 9.69904 10H13.7508C13.8061 10 13.8508 10.0448 13.8508 10.1V13.65C13.8508 13.7052 13.8061 13.75 13.7508 13.75H9.69904ZM15.2419 13.75C15.1867 13.75 15.1419 13.7052 15.1419 13.65V10.1C15.1419 10.0448 15.1867 10 15.2419 10H19.2937C19.349 10 19.3937 10.0448 19.3937 10.1V13.65C19.3937 13.7052 19.349 13.75 19.2937 13.75H15.2419ZM20.7848 13.75C20.7296 13.75 20.6848 13.7052 20.6848 13.65V10.1C20.6848 10.0448 20.7296 10 20.7848 10H24.8589C24.9141 10 24.9589 10.0448 24.9589 10.1V13.65C24.9589 13.7052 24.9141 13.75 24.8589 13.75H20.7848Z" fill="white"></path>
    <path d="M18.2447 20C18.2447 21.3807 19.3639 22.5 20.7446 22.5C22.1254 22.5 23.2446 21.3807 23.2446 20C23.2446 18.6193 22.1254 17.5 20.7446 17.5C19.3639 17.5 18.2447 18.6193 18.2447 20Z" fill="white"></path>
    <path d="M7.00022 20C7.00022 21.3807 8.1195 22.5 9.50021 22.5C10.8809 22.5 12.0002 21.3807 12.0002 20C12.0002 18.6193 10.8809 17.5 9.50021 17.5C8.1195 17.5 7.00022 18.6193 7.00022 20Z" fill="white"></path>
  </g>
  <defs>
    <clipPath id="clip0_1722_119">
      <rect width="30" height="29.9999" fill="white"></rect>
    </clipPath>
  </defs>
</svg>
