<?xml version="1.0" encoding="UTF-8"?>
<svg xmlns="http://www.w3.org/2000/svg" width="30" height="30" viewBox="0 0 30 30" fill="none">
  <g clip-path="url(#clip0_1722_123)">
    <circle cx="15" cy="15" r="15" fill="black"></circle>
    <path d="M21.8327 11.2128C21.8252 11.166 21.8161 11.122 21.804 11.0762C21.6669 10.5579 20.7387 7.15482 19.7521 6.17305C18.8525 5.27342 16.7516 5.10938 14.9999 5.10938C13.2483 5.10938 11.1474 5.27342 10.2478 6.17305C9.38336 7.03748 8.53291 9.91507 8.24463 10.9628C8.17427 11.2185 8.1416 11.4827 8.1416 11.7479V19.3605C8.1416 21.0169 9.36933 21.9853 10.7664 21.9853H19.2282C20.62 21.9853 21.853 21.0169 21.853 19.3605V11.4645C21.853 11.3802 21.8462 11.2961 21.8327 11.2128V11.2128ZM9.39507 11.2533C9.25943 11.2533 9.16313 11.1211 9.20468 10.992L10.2084 7.8729C10.235 7.79022 10.312 7.73417 10.3988 7.73417H14.1796C14.2901 7.73417 14.3796 7.82371 14.3796 7.93417V11.0533C14.3796 11.1638 14.2901 11.2533 14.1796 11.2533H9.39507ZM11.4808 20.5883C10.7929 20.5883 10.2266 20.0432 10.2266 19.3341C10.2266 18.6461 10.7929 18.0799 11.4808 18.0799C12.1635 18.0799 12.735 18.6461 12.735 19.3341C12.735 20.0485 12.1688 20.5883 11.4808 20.5883ZM12.0209 22.7992C12.0209 22.6887 11.9314 22.5992 11.8209 22.5992H10.9717C10.8612 22.5992 10.7717 22.6887 10.7717 22.7992V24.6906C10.7717 24.801 10.8612 24.8906 10.9717 24.8906H11.8209C11.9314 24.8906 12.0209 24.801 12.0209 24.6906V22.7992ZM15.0052 14.656C14.3173 14.656 13.751 14.0898 13.751 13.4018C13.751 12.6927 14.3173 12.1476 15.0052 12.1476C15.6879 12.1476 16.2594 12.6927 16.2594 13.4018C16.2541 14.0898 15.6879 14.656 15.0052 14.656ZM15.8228 11.2533C15.7123 11.2533 15.6228 11.1638 15.6228 11.0533V7.93417C15.6228 7.82371 15.7123 7.73417 15.8228 7.73417H19.6063C19.6932 7.73417 19.7701 7.79022 19.7967 7.8729L20.8005 10.992C20.842 11.1211 20.7457 11.2533 20.6101 11.2533H15.8228ZM18.5244 20.5883C17.8364 20.5883 17.2702 20.0432 17.2702 19.3341C17.2702 18.6461 17.8364 18.0799 18.5244 18.0799C19.207 18.0799 19.7785 18.6461 19.7785 19.3341C19.7785 20.0485 19.2123 20.5883 18.5244 20.5883ZM19.2335 22.7992C19.2335 22.6887 19.1439 22.5992 19.0335 22.5992H18.1843C18.0738 22.5992 17.9843 22.6887 17.9843 22.7992V24.6906C17.9843 24.801 18.0738 24.8906 18.1843 24.8906H19.0335C19.1439 24.8906 19.2335 24.801 19.2335 24.6906V22.7992Z" fill="white"></path>
  </g>
  <defs>
    <clipPath id="clip0_1722_123">
      <rect width="30" height="29.9999" fill="white"></rect>
    </clipPath>
  </defs>
</svg>
