<?xml version="1.0" encoding="UTF-8"?>
<svg xmlns="http://www.w3.org/2000/svg" width="30" height="30" viewBox="0 0 30 30" fill="none">
  <g clip-path="url(#clip0_1722_122)">
    <circle cx="15" cy="15" r="15" fill="#009757"></circle>
    <path d="M20.8614 11.2096C20.0057 10.4156 19.2018 9.7478 18.2742 9.25884C16.79 8.4765 15.2375 8.01235 13.5469 8.30354C12.6603 8.45607 12.0534 9.01436 11.9376 9.7135C11.7895 10.6068 12.1346 11.3417 12.9594 11.8241C14.0064 12.4356 15.1929 12.6188 16.3413 12.91C17.1617 13.118 17.9729 13.3449 18.7703 13.6354C22.2377 14.8972 22.616 18.5644 20.8183 20.9757C19.2528 23.076 17.0783 23.8751 14.5522 23.7343C12.3835 23.6131 10.4038 22.8906 8.62266 21.6135C8.35948 21.4252 8.24586 21.2304 8.25449 20.8968C8.27822 19.9853 8.2624 19.0731 8.2624 18.0171C8.82041 18.6856 9.32017 19.2446 9.91053 19.7073C11.5601 21.0005 13.3772 21.7857 15.5093 21.6047C16.1903 21.5471 16.8058 21.3048 17.3171 20.8326C18.1843 20.032 18.1534 18.8775 17.2365 18.1265C16.6354 17.6339 15.9062 17.4135 15.1807 17.1939C13.8044 16.7764 12.3842 16.4998 11.0675 15.889C9.65957 15.2358 8.60396 14.2798 8.2437 12.6626C7.80219 10.679 8.61547 8.60713 10.2981 7.51171C12.7869 5.89158 15.3993 5.98645 18.0692 6.92569C18.9573 7.23804 19.7828 7.68759 20.5465 8.24662C20.691 8.35243 20.8614 8.43125 20.8607 8.6553C20.86 9.46975 20.8614 10.2842 20.8614 11.2096Z" fill="white"></path>
  </g>
  <defs>
    <clipPath id="clip0_1722_122">
      <rect width="30" height="29.9999" fill="white"></rect>
    </clipPath>
  </defs>
</svg>
