<?xml version="1.0" encoding="UTF-8"?>
<svg xmlns="http://www.w3.org/2000/svg" width="30" height="30" viewBox="0 0 30 30" fill="none">
  <g clip-path="url(#clip0_1722_120)">
    <circle cx="14.999" cy="15" r="15" fill="#EF7D00"></circle>
    <path fill-rule="evenodd" clip-rule="evenodd" d="M26.25 11.8428C26.25 10.9785 25.5441 10.439 24.6749 10.439H12.8594L15.131 8.11206C15.2266 8.01408 15.2257 7.85738 15.1288 7.76059L11.2919 3.92619C11.1945 3.82886 11.0367 3.82861 10.939 3.92564L7.0776 7.76041C6.98015 7.85718 6.97901 8.01445 7.07506 8.11262L9.35104 10.439H6.20092C5.11576 10.439 4.74175 10.7899 4.62586 11.8428L3.75668 19.4901C3.70927 19.8463 3.91998 20.1973 4.27292 20.1973H5.3491C5.34632 20.2353 5.3449 20.2738 5.3449 20.3126C5.3449 21.1755 6.04446 21.8751 6.9074 21.8751C7.58622 21.8751 8.16394 21.4422 8.37956 20.8374C8.59518 21.4422 9.1729 21.8751 9.85173 21.8751C10.7147 21.8751 11.4142 21.1755 11.4142 20.3126C11.4142 19.9417 11.285 19.601 11.0691 19.333H18.6148C18.3989 19.601 18.2697 19.9417 18.2697 20.3126C18.2697 21.1755 18.9692 21.8751 19.8322 21.8751C20.511 21.8751 21.0887 21.4422 21.3043 20.8374C21.52 21.4422 22.0977 21.8751 22.7765 21.8751C23.6394 21.8751 24.339 21.1755 24.339 20.3126C24.339 20.2738 24.3376 20.2353 24.3348 20.1973H25.3808C25.8971 20.1973 26.25 19.8463 26.25 19.333V11.8428ZM5.35256 18.2749C5.20369 18.2749 5.08781 18.1457 5.10405 17.9977L5.75506 12.0655C5.76897 11.9387 5.87605 11.8428 6.00357 11.8428H8.04749C8.18556 11.8428 8.29749 11.9547 8.29749 12.0928V18.0249C8.29749 18.163 8.18556 18.2749 8.04749 18.2749H5.35256ZM11.2965 10.2644C11.1993 10.3611 11.0424 10.3614 10.9447 10.2652L8.76172 8.11252C8.66272 8.0149 8.66239 7.85527 8.76098 7.75724L10.944 5.58658C11.0418 5.48933 11.1999 5.48966 11.2973 5.58731L13.4622 7.75798C13.5598 7.85584 13.5595 8.01434 13.4614 8.1118L11.2965 10.2644ZM9.80146 15.0746C9.66339 15.0746 9.55146 14.9626 9.55146 14.8246V12.098C9.55146 11.9599 9.66339 11.848 9.80146 11.848H12.2715C12.4095 11.848 12.5215 11.9599 12.5215 12.098V14.8246C12.5215 14.9626 12.4095 15.0746 12.2715 15.0746H9.80146ZM14.0157 15.0746C13.8776 15.0746 13.7657 14.9626 13.7657 14.8246V12.098C13.7657 11.9599 13.8776 11.848 14.0157 11.848H16.412C16.5501 11.848 16.662 11.9599 16.662 12.098V14.8246C16.662 14.9626 16.5501 15.0746 16.412 15.0746H14.0157ZM18.1614 15.0746C18.0233 15.0746 17.9114 14.9626 17.9114 14.8246V12.098C17.9114 11.9599 18.0233 11.848 18.1614 11.848H20.5424C20.6804 11.848 20.7924 11.9599 20.7924 12.098V14.8246C20.7924 14.9626 20.6804 15.0746 20.5424 15.0746H18.1614ZM22.3069 18.2749C22.1688 18.2749 22.0569 18.163 22.0569 18.0249V12.0928C22.0569 11.9547 22.1688 11.8428 22.3069 11.8428H24.7532C24.8912 11.8428 25.0032 11.9547 25.0032 12.0928V18.0249C25.0032 18.163 24.8912 18.2749 24.7532 18.2749H22.3069Z" fill="white"></path>
  </g>
  <defs>
    <clipPath id="clip0_1722_120">
      <rect width="30" height="29.9999" fill="white"></rect>
    </clipPath>
  </defs>
</svg>
