<?xml version="1.0" encoding="UTF-8"?>
<svg xmlns="http://www.w3.org/2000/svg" width="30" height="30" viewBox="0 0 30 30" fill="none">
  <g clip-path="url(#clip0_1722_121)">
    <circle cx="14.999" cy="15" r="15" fill="#0065AE"></circle>
    <path d="M8.13237 12.7403C8.13237 11.123 8.14038 9.50566 8.12509 7.88834C8.12218 7.59075 8.18845 7.49659 8.50669 7.50162C9.78693 7.52103 11.0679 7.52175 12.3489 7.50162C12.6817 7.49659 12.7858 7.56344 12.7844 7.91566C12.7683 10.8915 12.7749 13.8681 12.7763 16.8447C12.7763 17.0208 12.7727 17.1998 12.8004 17.373C12.997 18.6108 13.7849 19.2203 15.087 19.147C15.2931 19.1355 15.5007 19.1233 15.7031 19.0881C16.6673 18.9199 17.2011 18.2543 17.2361 17.1602C17.2535 16.6168 17.2397 16.0734 17.2397 15.5293C17.2397 12.9876 17.2455 10.4466 17.2324 7.90487C17.231 7.59147 17.3031 7.49515 17.6344 7.50019C18.9285 7.52031 20.2233 7.51816 21.5174 7.50091C21.8159 7.49731 21.8764 7.58716 21.8749 7.86534C21.8647 10.8412 21.8684 13.8178 21.8684 16.7944C21.8684 19.8342 20.5044 21.5636 17.4866 22.2206C15.564 22.639 13.6269 22.598 11.7328 22.0258C9.43446 21.3322 8.15641 19.5956 8.13529 17.1825C8.12218 15.7032 8.13237 14.2218 8.13237 12.7403Z" fill="white"></path>
  </g>
  <defs>
    <clipPath id="clip0_1722_121">
      <rect width="30" height="29.9999" fill="white"></rect>
    </clipPath>
  </defs>
</svg>
